<svg width="24" height="24" viewBox="0 0 24 24" fill="none" xmlns="http://www.w3.org/2000/svg">
<path d="M23 12C23 18.0751 18.0751 23 12 23C5.92487 23 1 18.0751 1 12C1 5.92487 5.92487 1 12 1C18.0751 1 23 5.92487 23 12Z" stroke="#86868B" stroke-width="2" stroke-miterlimit="10" stroke-linecap="round" stroke-linejoin="round"/>
<path d="M10.8605 18H12.9147L12.9632 13.1258H14.6589L14.9496 10.8186L12.9535 10.7753L12.9632 8.96639C12.9632 8.96639 12.9535 8.21901 13.8256 8.20818C14.6976 8.19735 14.9496 8.20818 14.9496 8.20818L15 6.00936C13.7093 6.01943 12.0878 5.78228 11.2727 7.18675C10.956 7.73234 10.8217 8.4301 10.8217 9.07472V10.7753H9.04845L9 13.1257L10.8023 13.1366L10.8605 18Z" fill="#86868B"/>
</svg>
