<svg width="24" height="24" viewBox="0 0 24 24" fill="none" xmlns="http://www.w3.org/2000/svg">
<path d="M23 12C23 18.0751 18.0751 23 12 23C5.92487 23 1 18.0751 1 12C1 5.92487 5.92487 1 12 1C18.0751 1 23 5.92487 23 12Z" stroke="#86868B" stroke-width="2" stroke-miterlimit="10" stroke-linecap="round" stroke-linejoin="round"/>
<path d="M12.1858 10.0417C12.5411 9.54961 13.0149 9.23136 13.6142 9.09227C14.3087 8.9311 14.9956 8.97974 15.6514 9.24864C16.2784 9.50565 16.6197 9.99778 16.8008 10.6012C16.9192 10.9953 16.9772 11.3995 16.9803 11.8084C16.9904 13.1429 16.9941 14.4775 16.9999 15.8121C17.0007 15.9975 16.9997 15.9977 16.8009 15.9978C16.1632 15.9979 15.5256 15.9981 14.8879 15.9976C14.7279 15.9975 14.7227 15.9924 14.7227 15.8385C14.7223 14.737 14.7228 13.6355 14.7222 12.534C14.722 12.223 14.7144 11.9126 14.6192 11.6107C14.4714 11.1423 14.1491 10.9143 13.6319 10.9052C13.2613 10.8986 12.918 10.9598 12.6538 11.2311C12.448 11.4425 12.3542 11.7045 12.3192 11.9816C12.2872 12.2354 12.2706 12.4923 12.2693 12.748C12.2639 13.7833 12.2653 14.8186 12.2696 15.854C12.2701 15.9661 12.2367 16.0008 12.1176 16C11.4636 15.9954 10.8094 15.9957 10.1552 15.9997C10.0382 16.0004 9.99994 15.9664 10.0001 15.8532C10.0032 13.6736 10.0032 11.494 10 9.31432C9.99983 9.19861 10.0426 9.16911 10.1573 9.16981C10.7826 9.17368 11.4079 9.17395 12.0332 9.16971C12.1535 9.1689 12.1906 9.21007 12.1878 9.31971C12.1815 9.56026 12.1858 9.80105 12.1858 10.0417Z" fill="#86868B"/>
<path d="M8.99733 12.5065C8.99733 13.6192 8.99544 14.7319 8.99999 15.8445C9.0005 15.9674 8.96862 16.0009 8.86005 16C8.28753 15.9951 7.71493 15.9951 7.14241 15.9999C7.03397 16.0008 6.99987 15.9656 7.00003 15.8436C7.00308 13.6143 7.00309 11.3849 7 9.15553C6.99984 9.03241 7.03598 8.99935 7.14327 9.00022C7.7158 9.00485 8.28838 9.00519 8.8609 9.00002C8.97097 8.99903 9.00037 9.03529 8.9999 9.1565C8.99554 10.2731 8.99733 11.3898 8.99733 12.5065Z" fill="#86868B"/>
<path d="M7 6.99966C7.00105 6.47865 7.4018 6.00346 7.99545 6.00002C8.55214 5.99679 8.99896 6.41897 9 6.99855C9.00102 7.56821 8.56214 7.99427 7.99652 7.99995C7.44835 8.00543 7.0001 7.54707 7 6.99966Z" fill="#86868B"/>
</svg>
