<svg width="24" height="24" viewBox="0 0 24 24" fill="none" xmlns="http://www.w3.org/2000/svg">
<path d="M16.2289 7.09638C14.2289 6.96385 9.77108 6.96385 7.77108 7.09638C5.60241 7.24096 5.3494 8.55422 5.33735 11.988C5.3494 15.4217 5.60241 16.7349 7.77108 16.8795C9.77108 17.012 14.2289 17.012 16.2289 16.8795C18.3976 16.7349 18.6506 15.4217 18.6627 11.988C18.6506 8.55422 18.3976 7.24096 16.2289 7.09638ZM10 14.2169V9.77108L14.7711 11.988L10 14.2169ZM12 2C17.506 2 22 6.48192 22 12C22 17.5181 17.5181 22 12 22C6.48193 22 2 17.5181 2 12C2 6.48192 6.49398 2 12 2ZM12 0C5.3735 0 0 5.37349 0 12C0 18.6265 5.3735 24 12 24C18.6265 24 24 18.6265 24 12C24 5.37349 18.6265 0 12 0Z" fill="#86868B"/>
</svg>
