<svg width="24" height="24" viewBox="0 0 24 24" fill="none" xmlns="http://www.w3.org/2000/svg">
<path d="M23 12C23 18.0751 18.0751 23 12 23C5.92487 23 1 18.0751 1 12C1 5.92487 5.92487 1 12 1C18.0751 1 23 5.92487 23 12Z" stroke="#86868B" stroke-width="2" stroke-miterlimit="10" stroke-linecap="round" stroke-linejoin="round"/>
<path d="M7.7239 8.43701C6.72796 10.054 8.36613 11.2995 8.36613 11.2995C7.95017 11.3279 7.38815 11.0514 7.38815 11.0514C7.41176 12.8956 9.12477 13.205 9.12477 13.205C8.62578 13.3445 8.16112 13.262 8.16112 13.262C8.80831 14.8279 10.1672 14.7635 10.1672 14.7635C8.82377 15.8748 7 15.6835 7 15.6835C7.79809 16.1745 9.0328 16.554 10.0382 16.6218C11.0437 16.6896 12.8182 16.4234 14.2724 15.2287C15.7266 14.0339 16.2094 12.3345 16.354 11.7242C16.4987 11.1138 16.5111 10.1362 16.5111 10.1362C17.1344 9.69842 17.5356 9.04607 17.5356 9.04607C16.8981 9.33131 16.3712 9.33553 16.3712 9.33553C17.0638 8.88029 17.2777 8.19366 17.2777 8.19366C16.3771 8.68037 15.8833 8.69884 15.8833 8.69884C14.6065 6.96359 11.517 8.7779 12.2069 10.6803C9.36475 10.6051 7.7239 8.43701 7.7239 8.43701Z" fill="#86868B"/>
</svg>
