<svg width="24" height="24" viewBox="0 0 24 24" fill="none" xmlns="http://www.w3.org/2000/svg">
<path d="M23 12C23 18.0751 18.0751 23 12 23C5.92487 23 1 18.0751 1 12C1 5.92487 5.92487 1 12 1C18.0751 1 23 5.92487 23 12Z" stroke="#86868B" stroke-width="2" stroke-miterlimit="10" stroke-linecap="round" stroke-linejoin="round"/>
<path d="M15.25 6H8.75C8.02106 6.00132 7.32236 6.29148 6.80692 6.80692C6.29148 7.32236 6.00132 8.02106 6 8.75V15.25C6.00132 15.9789 6.29148 16.6776 6.80692 17.1931C7.32236 17.7085 8.02106 17.9987 8.75 18H15.25C15.9789 17.9987 16.6776 17.7085 17.1931 17.1931C17.7085 16.6776 17.9987 15.9789 18 15.25V8.75C17.9987 8.02106 17.7085 7.32236 17.1931 6.80692C16.6776 6.29148 15.9789 6.00132 15.25 6V6ZM16 14C16 14.5304 15.7893 15.0391 15.4142 15.4142C15.0391 15.7893 14.5304 16 14 16H10C9.46957 16 8.96086 15.7893 8.58579 15.4142C8.21071 15.0391 8 14.5304 8 14V10C8 9.46957 8.21071 8.96086 8.58579 8.58579C8.96086 8.21071 9.46957 8 10 8H14C14.5304 8 15.0391 8.21071 15.4142 8.58579C15.7893 8.96086 16 9.46957 16 10V14Z" fill="#86868B"/>
<path d="M12 14C13.1046 14 14 13.1046 14 12C14 10.8954 13.1046 10 12 10C10.8954 10 10 10.8954 10 12C10 13.1046 10.8954 14 12 14Z" fill="#86868B"/>
<path d="M14.5 10C14.7761 10 15 9.77614 15 9.5C15 9.22386 14.7761 9 14.5 9C14.2239 9 14 9.22386 14 9.5C14 9.77614 14.2239 10 14.5 10Z" fill="#86868B"/>
</svg>
