<svg width="24" height="24" viewBox="0 0 24 24" fill="none" xmlns="http://www.w3.org/2000/svg">
<path d="M23 12C23 18.0751 18.0751 23 12 23C5.92487 23 1 18.0751 1 12C1 5.92487 5.92487 1 12 1C18.0751 1 23 5.92487 23 12Z" stroke="#86868B" stroke-width="2" stroke-miterlimit="10" stroke-linecap="round" stroke-linejoin="round"/>
<path d="M17.3984 7.11965C16.3774 6.65811 15.3145 6.32244 14.2096 6.14062C14.0697 6.39237 13.9159 6.71405 13.804 6.97979C12.6292 6.79797 11.4404 6.79797 10.2655 6.97979C10.1397 6.68608 9.9998 6.40636 9.84595 6.14062C8.74106 6.32244 7.66413 6.65811 6.65714 7.13363C4.64316 10.1406 4.0977 13.0637 4.36344 15.9588C5.55225 16.8399 6.86693 17.5113 8.27952 17.9308C8.6012 17.4973 8.88092 17.0497 9.11868 16.5742C8.65714 16.4064 8.22358 16.1966 7.804 15.9448C7.91588 15.8609 8.01379 15.777 8.12567 15.6931C10.6012 16.8679 13.4823 16.8679 15.9578 15.6931C16.0697 15.777 16.1676 15.8609 16.2795 15.9448C15.8599 16.1966 15.4124 16.4064 14.9508 16.5742C15.1886 17.0497 15.4683 17.4973 15.79 17.9308C17.2026 17.4973 18.5313 16.8399 19.7061 15.9588C20.0138 12.6022 19.1466 9.69307 17.3984 7.11965ZM9.45434 14.1686C8.68511 14.1686 8.06973 13.4693 8.06973 12.6161C8.06973 11.763 8.68511 11.0497 9.45434 11.0497C10.2376 11.0497 10.8529 11.749 10.8529 12.6161C10.839 13.4693 10.2376 14.1686 9.45434 14.1686ZM14.6012 14.1686C13.832 14.1686 13.2166 13.4693 13.2166 12.6161C13.2166 11.763 13.832 11.0497 14.6012 11.0497C15.3844 11.0497 15.9998 11.749 15.9858 12.6161C15.9718 13.4833 15.3704 14.1686 14.6012 14.1686Z" fill="#86868B"/>
</svg>
